<!--?xml version="1.0" standalone="no"?-->
              <svg id="sw-js-blob-svg" viewBox="0 0 100 100" xmlns="http://www.w3.org/2000/svg" version="1.1">
                    <defs> 
                        <linearGradient id="sw-gradient" x1="0" x2="1" y1="1" y2="0">
                            <stop id="stop1" stop-color="rgba(255, 0, 212.17, 1)" offset="0%"></stop>
                            <stop id="stop2" stop-color="rgba(49.476, 31, 251, 1)" offset="100%"></stop>
                        </linearGradient>
                    </defs>
                <path fill="url(#sw-gradient)" d="M17.9,-31.2C23.6,-27.7,28.8,-23.7,32,-18.4C35.2,-13.1,36.4,-6.6,37.3,0.5C38.2,7.6,38.8,15.2,36.1,21.4C33.5,27.7,27.6,32.6,21,35.1C14.5,37.6,7.2,37.7,0.3,37.1C-6.6,36.5,-13.1,35.3,-19.8,32.8C-26.4,30.4,-33.2,26.7,-38,21C-42.9,15.4,-45.9,7.7,-46.1,-0.1C-46.3,-7.9,-43.7,-15.8,-38.4,-20.7C-33,-25.6,-25,-27.5,-18.2,-30.3C-11.3,-33,-5.7,-36.6,0.2,-37C6.1,-37.4,12.2,-34.6,17.9,-31.2Z" width="100%" height="100%" transform="translate(50 50)" stroke-width="0" style="transition: all 0.3s ease 0s;" stroke="url(#sw-gradient)"></path>
              </svg>